<?xml version="1.0" standalone="no"?>
<!DOCTYPE svg PUBLIC "-//W3C//DTD SVG 20010904//EN"
 "http://www.w3.org/TR/2001/REC-SVG-20010904/DTD/svg10.dtd">
<svg version="1.0" xmlns="http://www.w3.org/2000/svg"
 width="964.000000pt" height="921.000000pt" viewBox="0 0 964.000000 921.000000"
 preserveAspectRatio="xMidYMid meet">

<g transform="translate(0.000000,921.000000) scale(0.100000,-0.100000)"
fill="#000000" stroke="none">
<path d="M6293 9140 c-67 -15 -141 -103 -174 -210 -11 -36 -47 -114 -81 -175
-33 -60 -98 -191 -143 -290 l-83 -180 -339 3 c-187 2 -394 -2 -463 -7 -140
-13 -355 -45 -444 -67 -49 -13 -61 -13 -72 -2 -32 33 -157 285 -160 323 -9
100 -245 468 -315 489 -33 10 -111 -5 -162 -31 -36 -18 -81 -81 -108 -152 -29
-74 -36 -254 -19 -493 8 -110 10 -228 5 -312 l-7 -134 -46 -17 c-101 -38 -404
-198 -517 -273 -66 -44 -164 -118 -219 -163 -113 -96 -96 -85 -206 -137 -369
-176 -803 -802 -1148 -1653 -205 -505 -335 -1065 -402 -1729 -31 -306 0 -919
65 -1308 116 -688 460 -1359 895 -1748 251 -225 668 -475 939 -564 232 -76
562 -122 876 -121 561 0 1099 104 1581 306 58 25 110 42 115 39 5 -3 9 0 9 5
0 17 70 58 150 87 41 15 77 31 80 35 3 3 46 30 95 59 106 63 276 175 360 239
212 160 380 381 459 605 39 110 43 131 34 157 -15 44 -15 148 1 514 10 253 11
374 2 575 -7 140 -16 271 -21 290 -14 50 -172 211 -225 230 -56 19 -603 27
-657 9 -30 -9 -46 -9 -84 1 l-47 13 44 24 c24 13 36 22 26 19 -58 -18 -158
-27 -194 -17 -60 16 -128 67 -162 119 -48 75 -63 128 -65 222 -1 76 2 92 30
150 29 62 33 65 65 65 32 0 34 2 40 46 10 65 31 101 80 133 29 20 38 30 29 36
-19 11 125 110 161 110 15 0 35 7 44 16 45 45 639 68 831 32 115 -22 277 -78
376 -130 206 -110 308 -230 358 -425 6 -25 17 -43 25 -43 14 0 18 -13 74 -250
128 -531 168 -1225 90 -1528 -31 -117 -113 -315 -180 -433 -116 -203 -234
-339 -517 -593 -190 -171 -299 -256 -502 -391 -221 -148 -410 -235 -715 -330
-199 -62 -569 -150 -686 -164 -52 -6 -107 -13 -124 -15 -16 -1 89 -4 235 -4
286 -2 334 3 566 58 373 89 623 205 965 449 260 185 617 532 806 781 202 268
247 380 319 794 33 192 37 227 36 391 0 190 -14 315 -57 520 -13 66 -39 194
-56 285 -65 343 -198 726 -259 745 -11 3 -20 10 -20 15 0 17 -113 121 -182
168 -193 131 -432 214 -656 230 l-97 7 3 36 c1 19 -4 99 -12 176 -13 125 -19
147 -48 202 -18 33 -38 61 -45 61 -20 0 -27 -127 -14 -275 6 -77 14 -152 17
-166 l6 -27 -129 -6 c-489 -25 -656 -80 -742 -243 -11 -21 -47 -69 -81 -108
-68 -80 -147 -225 -181 -335 -33 -105 -33 -244 -1 -315 43 -93 128 -156 232
-171 25 -3 71 -15 104 -26 85 -28 188 -27 250 1 47 22 52 23 182 11 74 -6 164
-10 201 -9 l68 2 -2 -124 c0 -68 -7 -155 -14 -193 -10 -53 -10 -72 -1 -85 30
-40 52 -100 52 -141 0 -115 -101 -450 -200 -660 -38 -80 -72 -156 -75 -170 -4
-14 -34 -94 -67 -177 -48 -124 -64 -154 -81 -158 -202 -44 -746 -83 -1002 -71
-345 17 -599 89 -1000 286 -269 132 -465 271 -651 462 l-102 103 -7 68 c-20
187 50 440 306 1100 283 729 352 944 375 1171 l7 65 -39 -6 c-22 -3 -42 -8
-45 -12 -3 -3 -18 -53 -34 -111 -37 -140 -58 -195 -303 -825 -289 -743 -365
-970 -395 -1180 l-13 -88 -64 99 c-357 549 -494 1286 -394 2114 47 391 136
797 245 1116 81 238 222 566 250 584 4 3 21 37 38 76 86 203 310 515 538 749
l77 80 8 -77 c4 -43 12 -95 17 -115 6 -21 11 -119 11 -218 1 -454 32 -942 86
-1320 19 -132 37 -181 75 -200 62 -32 82 -13 63 58 -41 149 -84 684 -84 1035
0 75 -7 207 -15 292 -8 85 -17 241 -21 345 -3 105 -12 278 -20 385 -51 693
-35 1162 47 1349 23 52 28 49 94 -43 56 -78 94 -146 253 -452 161 -310 228
-423 403 -684 213 -317 219 -325 279 -345 28 -9 92 -34 141 -56 l91 -38 51 34
c28 19 80 44 115 56 78 26 95 46 241 280 150 243 176 291 290 554 141 326 146
337 192 412 23 38 53 102 68 143 29 81 87 181 138 239 27 30 34 33 43 21 19
-29 43 -114 33 -117 -6 -2 -5 -34 4 -86 16 -102 30 -615 42 -1547 12 -864 14
-907 47 -1101 20 -119 27 -194 29 -329 2 -170 3 -177 31 -232 15 -32 32 -58
36 -58 35 0 35 113 -2 1360 -11 371 -21 758 -24 860 -2 102 -8 235 -14 295 -6
61 -13 279 -16 485 -3 276 -8 395 -19 452 -15 74 -41 132 -71 157 -23 19 -69
28 -103 21z m-993 -942 c-131 -27 -299 -71 -398 -103 -107 -34 -112 -37 -112
-64 0 -36 -29 -62 -79 -71 l-40 -7 -68 101 c-37 55 -72 107 -77 115 -7 12 9
13 106 7 82 -5 147 -3 229 8 145 20 184 22 349 23 109 1 126 -1 90 -9z m450
-38 c0 -41 -418 -724 -472 -772 -51 -44 -80 -45 -162 -4 -39 19 -93 53 -119
75 -76 64 -173 186 -196 249 -11 32 -41 92 -65 135 l-45 78 47 20 c220 95 620
190 912 218 47 5 88 9 93 10 4 0 7 -4 7 -9z m-2015 -437 c6 -129 5 -158 -6
-161 -61 -19 -437 -538 -614 -847 -248 -433 -435 -905 -539 -1360 -150 -660
-188 -1237 -115 -1740 75 -518 260 -961 557 -1335 105 -132 307 -330 432 -424
330 -246 880 -490 1220 -541 144 -22 394 -29 604 -16 466 28 833 103 1255 256
85 30 156 53 159 51 9 -9 -51 -123 -113 -216 -98 -147 -199 -257 -295 -323
-356 -245 -836 -462 -1268 -573 -343 -88 -661 -127 -1042 -128 -240 -1 -295 2
-430 23 -397 60 -637 156 -1010 406 -366 246 -615 539 -839 985 -237 473 -331
897 -372 1665 -6 116 -8 253 -4 305 3 52 10 194 15 315 14 337 59 609 170
1026 99 377 206 663 362 973 102 201 193 338 310 463 279 299 358 380 513 526
306 289 477 421 723 562 83 48 152 93 152 99 0 21 54 85 105 126 28 22 53 40
56 40 4 0 10 -71 14 -157z m2845 -4487 c0 -8 16 -27 36 -42 40 -31 57 -60 90
-158 36 -105 62 -256 75 -434 10 -148 10 -166 -7 -211 -14 -41 -15 -55 -6 -76
33 -72 -18 -533 -64 -574 -17 -15 -553 -166 -561 -158 -1 2 20 48 47 102 60
122 157 412 199 595 39 174 58 293 71 460 7 74 23 178 36 230 14 52 30 136 36
187 10 79 15 93 30 93 10 0 18 -7 18 -14z"/>
<path d="M5624 5735 c-15 -24 -15 -29 0 -68 28 -74 98 -135 169 -148 23 -4 63
-13 88 -20 66 -17 132 -5 174 33 63 55 35 97 -66 99 -34 1 -74 8 -88 15 -14 8
-32 14 -39 14 -19 0 -71 29 -121 67 -54 41 -94 43 -117 8z"/>
<path d="M5015 5708 c-11 -6 -38 -30 -60 -54 -32 -34 -49 -44 -88 -49 -26 -4
-60 -4 -75 -1 -15 4 -45 11 -67 15 -22 5 -47 11 -56 15 -9 4 -21 0 -29 -9 -11
-13 -10 -23 6 -57 32 -71 59 -96 119 -108 72 -15 146 0 244 48 87 43 131 91
131 141 0 33 -1 33 -33 28 -27 -4 -35 -1 -43 16 -11 26 -23 30 -49 15z"/>
<path d="M6362 5441 c-80 -17 -112 -35 -92 -55 5 -5 41 -4 87 2 181 25 265 25
558 -3 50 -5 50 -5 -30 25 -44 16 -107 34 -141 39 -92 16 -286 12 -382 -8z"/>
<path d="M3870 5239 c-121 -13 -356 -59 -377 -74 -14 -11 -16 -16 -5 -26 10
-11 38 -9 148 9 139 23 299 41 572 63 84 7 155 15 157 19 12 19 -332 25 -495
9z"/>
<path d="M5705 5177 c-16 -12 -38 -32 -48 -44 -38 -47 -47 -53 -80 -46 -59 11
-124 44 -135 69 -17 36 -42 30 -112 -31 -35 -31 -80 -60 -100 -66 -34 -10 -43
-8 -123 35 -89 47 -117 50 -117 12 0 -34 24 -61 99 -110 60 -40 75 -46 121
-46 62 0 124 31 163 81 l25 32 33 -25 c91 -68 166 -77 238 -28 24 17 48 30 52
30 14 0 39 57 39 87 -1 15 -6 38 -13 50 l-12 21 -30 -21z"/>
<path d="M6322 5143 c2 -11 33 -24 109 -44 59 -15 156 -48 215 -72 60 -24 126
-47 147 -51 21 -4 46 -10 55 -13 9 -3 -10 12 -43 34 -81 53 -214 109 -331 139
-116 29 -157 31 -152 7z"/>
<path d="M4308 5055 c-2 -3 -25 -9 -49 -14 -24 -5 -116 -30 -204 -55 -102 -30
-185 -49 -230 -51 -61 -4 -70 -7 -73 -24 -9 -55 171 -35 408 46 61 20 180 86
180 100 0 5 -26 4 -32 -2z"/>
</g>
</svg>
